<svg width="40" height="40" viewBox="0 0 40 40" xmlns="http://www.w3.org/2000/svg">
  <g fill="#f6d202" fill-rule="evenodd"><path d="M15.908 12.128a3.783 3.783 0 0 0-3.78 3.78v8.184a3.784 3.784 0 0 0 3.78 3.78h8.185a3.784 3.784 0 0 0 3.779-3.78v-8.185a3.783 3.783 0 0 0-3.78-3.779h-8.184zM24.093 29.5h-8.185a5.414 5.414 0 0 1-5.407-5.408v-8.185a5.413 5.413 0 0 1 5.407-5.407h8.185a5.414 5.414 0 0 1 5.407 5.407v8.185a5.415 5.415 0 0 1-5.407 5.408z"/><path d="M20 16.764A3.24 3.24 0 0 0 16.764 20 3.24 3.24 0 0 0 20 23.237 3.24 3.24 0 0 0 23.236 20 3.24 3.24 0 0 0 20 16.764m0 8.102A4.87 4.87 0 0 1 15.135 20 4.87 4.87 0 0 1 20 15.136 4.87 4.87 0 0 1 24.864 20 4.87 4.87 0 0 1 20 24.866M26.242 14.857a1.169 1.169 0 1 1-2.337 0 1.169 1.169 0 0 1 2.337 0"/></g>
</svg>
